<mxfile host="app.diagrams.net" modified="2023-12-10T13:34:01.146Z" agent="Mozilla/5.0 (Macintosh; Intel Mac OS X 10_15_7) AppleWebKit/537.36 (KHTML, like Gecko) Chrome/119.0.0.0 Safari/537.36" etag="4T1VvofPNu45NyU3izDZ" version="22.1.7" type="device">
  <diagram id="prtHgNgQTEPvFCAcTncT" name="Page-1">
    <mxGraphModel dx="1194" dy="642" grid="1" gridSize="10" guides="1" tooltips="1" connect="1" arrows="1" fold="1" page="1" pageScale="1" pageWidth="827" pageHeight="1169" math="0" shadow="0">
      <root>
        <mxCell id="0" />
        <mxCell id="1" parent="0" />
        <mxCell id="dNxyNK7c78bLwvsdeMH5-11" value="" style="swimlane;html=1;startSize=20;horizontal=1;containerType=tree;glass=0;" parent="1" vertex="1">
          <mxGeometry x="30" y="90" width="720" height="430" as="geometry">
            <mxRectangle x="30" y="90" width="50" height="40" as="alternateBounds" />
          </mxGeometry>
        </mxCell>
        <UserObject label="Puzzle" name="Tessa Miller" position="CFO" location="Office 1" email="me@example.com" placeholders="1" id="dNxyNK7c78bLwvsdeMH5-12">
          <mxCell style="" parent="dNxyNK7c78bLwvsdeMH5-11" vertex="1">
            <mxGeometry x="260" y="50" width="180" height="70" as="geometry" />
          </mxCell>
        </UserObject>
        <mxCell id="dNxyNK7c78bLwvsdeMH5-13" value="" style="endArrow=blockThin;endFill=1;fontSize=11;edgeStyle=elbowEdgeStyle;elbow=vertical;rounded=0;" parent="dNxyNK7c78bLwvsdeMH5-11" source="dNxyNK7c78bLwvsdeMH5-12" target="dNxyNK7c78bLwvsdeMH5-14" edge="1">
          <mxGeometry relative="1" as="geometry" />
        </mxCell>
        <UserObject label="Pattern" name="Edward Morrison" position="Brand Manager" location="Office 2" email="me@example.com" placeholders="1" id="dNxyNK7c78bLwvsdeMH5-14">
          <mxCell style="" parent="dNxyNK7c78bLwvsdeMH5-11" vertex="1">
            <mxGeometry x="100" y="180" width="180" height="80" as="geometry" />
          </mxCell>
        </UserObject>
        <mxCell id="dNxyNK7c78bLwvsdeMH5-17" value="" style="endArrow=blockThin;endFill=1;fontSize=11;edgeStyle=elbowEdgeStyle;elbow=vertical;rounded=0;" parent="dNxyNK7c78bLwvsdeMH5-11" source="dNxyNK7c78bLwvsdeMH5-12" target="dNxyNK7c78bLwvsdeMH5-18" edge="1">
          <mxGeometry relative="1" as="geometry">
            <Array as="points">
              <mxPoint x="350" y="150" />
            </Array>
          </mxGeometry>
        </mxCell>
        <mxCell id="lYjn4Izt4WfqcPmx0Cme-11" style="edgeStyle=orthogonalEdgeStyle;rounded=0;orthogonalLoop=1;jettySize=auto;html=1;entryX=0.5;entryY=0;entryDx=0;entryDy=0;" edge="1" parent="dNxyNK7c78bLwvsdeMH5-11" source="dNxyNK7c78bLwvsdeMH5-18" target="lYjn4Izt4WfqcPmx0Cme-10">
          <mxGeometry relative="1" as="geometry" />
        </mxCell>
        <UserObject label="Cell" name="Alison Donovan" position="System Admin" location="Office 3" email="me@example.com" placeholders="1" id="dNxyNK7c78bLwvsdeMH5-18">
          <mxCell style="" parent="dNxyNK7c78bLwvsdeMH5-11" vertex="1">
            <mxGeometry x="420" y="180" width="180" height="80" as="geometry" />
          </mxCell>
        </UserObject>
        <UserObject label="Blocked Cell" name="Alison Donovan" position="System Admin" location="Office 3" email="me@example.com" placeholders="1" id="lYjn4Izt4WfqcPmx0Cme-10">
          <mxCell style="" vertex="1" parent="dNxyNK7c78bLwvsdeMH5-11">
            <mxGeometry x="420" y="310" width="180" height="80" as="geometry" />
          </mxCell>
        </UserObject>
      </root>
    </mxGraphModel>
  </diagram>
</mxfile>
